<svg xmlns="http://www.w3.org/2000/svg" width="38" height="38" viewBox="0 0 38 38">
  <defs>
    <style>
      .cls-1 {
        fill: #333;
      }
    </style>
  </defs>
  <path id="right-top" class="cls-1" d="M38,38H28V34H24v4H14V34H10v4H0V28H4V24H0V14H4V10H0V0H10V4h4V0H24V4h4V0H38V10H34v4h4V24H34v4h4V38h0Zm-8-2h6V30H30ZM16,36h6V34h0V32h0V30H16ZM2,36H8V30H2Zm26-4V28h4V24H28V14h4V10H28V6H24v4H14V6H10v4H6v4h4V24H6v4h4v4h4V28H24v4Zm8-10V16H30v6h4ZM8,22V16H2v6H6ZM16,8h6V6h0V4h0V2H16ZM8,8V2H2V8H6ZM24,24H14V14H24V24Zm-8-2h6V16H16Z"/>
</svg>
