<svg xmlns="http://www.w3.org/2000/svg" xmlns:xlink="http://www.w3.org/1999/xlink" width="16" height="16" viewBox="0 0 16 16">
  <defs>
    <clipPath id="clip-buttons-icon-mask">
      <rect width="16" height="16"/>
    </clipPath>
  </defs>
  <g id="buttons-icon-mask" clip-path="url(#clip-buttons-icon-mask)">
    <path d="M2504-933a8,8,0,0,1,8-8,8,8,0,0,1,8,8,8,8,0,0,1-8,8A8,8,0,0,1,2504-933Zm1.549,0a6.45,6.45,0,0,0,6.452,6.452,6.45,6.45,0,0,0,6.451-6.452,6.45,6.45,0,0,0-6.451-6.452A6.45,6.45,0,0,0,2505.548-933Zm2.394-.06a4.057,4.057,0,0,1,4.058-4.058,4.057,4.057,0,0,1,4.058,4.058A4.057,4.057,0,0,1,2512-929,4.057,4.057,0,0,1,2507.942-933.06Z" transform="translate(-2504 941)" fill="currentColor"/>
  </g>
</svg>
